<svg xmlns="http://www.w3.org/2000/svg" width="210" height="97" viewBox="0 0 210 97" fill="none"><g clip-path="url(#clip0_2202_3439)"><path fill-rule="evenodd" clip-rule="evenodd" d="M33.6616 40.576C34.4475 37.9463 34.3826 34.6377 34.3826 31.2291V6.83266C34.3826 5.66072 34.6709 2.3164 34.2023 1.62324C33.7337 0.93008 31.9314 1.08729 30.6698 1.08729C27.0651 1.08729 25.4647 0.594219 25.1402 4.00285L25.0033 4.09575C22.1772 1.95196 19.4881 -0.0846494 14.3046 0.00824836L12.5816 0.144022C11.581 0.291834 10.5964 0.531052 9.64022 0.85862C7.89591 1.57013 6.31215 2.61908 4.98149 3.9442C3.65082 5.26931 2.59993 6.84401 1.89022 8.57628C1.20654 10.2727 0.70395 12.0355 0.39068 13.8357C0.011587 15.606 -0.0808873 17.4247 0.116726 19.2238C0.39068 20.9103 0.224866 22.3823 0.570913 23.8544C1.82533 29.1353 4.32696 33.2514 8.91208 35.2165C11.4386 36.2914 14.2204 36.6358 16.936 36.2098C18.7624 35.8929 20.5145 35.2462 22.1051 34.3018L24.0516 32.8726H24.0949C24.3129 34.4753 24.2862 36.1014 24.0156 37.6962C23.2081 42.2625 21.8528 43.7988 17.2605 44.6135C15.9725 44.8391 14.6576 44.8704 13.3602 44.7064L9.55371 44.2133L3.97371 42.877C3.76891 42.9167 3.57783 43.0078 3.41877 43.1417C3.25971 43.2756 3.13801 43.4477 3.06533 43.6416C2.9429 45.501 3.00326 47.3677 3.24557 49.2155C3.88719 50.2731 5.94906 50.6947 7.23952 51.102C11.5651 52.4669 18.5509 53.1244 23.237 51.5094C28.6007 49.68 31.9963 46.0998 33.6616 40.576ZM24.1381 14.2002V26.7342C23.1863 27.4053 22.1325 27.9216 21.0165 28.2635C13.3819 30.6359 10.4981 25.3193 10.4981 18.3377C10.3883 16.1937 10.6642 14.0474 11.3128 11.9992C11.9832 10.2842 13.0214 8.78352 14.7156 8.09036C15.3212 7.84739 16.0493 7.90456 16.7053 7.64016C18.6174 7.57428 20.5249 7.86516 22.3286 8.49768L24.0156 9.29088C24.4265 10.0055 24.1381 13.0854 24.1381 14.2002ZM54.8282 38.1035C56.9573 37.6951 58.9974 36.9186 60.8552 35.8096L63.2559 34.0589C63.8759 34.8521 63.6307 36.0597 64.431 36.6671C65.2312 37.2746 71.4096 37.4961 72.0008 36.6671C72.5919 35.8382 72.318 34.0446 72.318 32.8012V16.7656C72.318 13.6428 72.5559 10.1484 71.8205 7.69018C70.0975 1.90908 65.1663 -0.0775035 57.5461 0.00110238L53.4656 0.265504C51.1323 0.580234 48.8278 1.07724 46.5735 1.75187C45.5931 2.08773 44.0935 2.33784 43.6898 3.23109C43.2861 4.12434 43.3654 8.83354 43.9133 9.20513C44.7207 9.75537 48.5993 8.49053 49.6807 8.26186C52.8096 7.59014 59.9468 6.90412 61.6914 9.11938C62.9459 10.7201 62.7368 13.8429 62.708 16.7156C61.987 16.8871 60.747 16.4154 59.99 16.2654L56.544 15.9081C55.2753 15.7675 53.9927 15.8132 52.7375 16.0438C46.8258 17.0514 42.6444 19.281 41.2747 24.7119C39.1551 33.0656 46.4582 39.8543 54.8282 38.1035ZM53.1052 22.6039C53.9631 22.1036 55.03 22.2394 56.097 21.8392C58.5121 21.8392 60.5524 22.2037 62.5854 22.2894C62.9531 23.0898 62.6863 27.1701 62.6719 28.3992C60.9489 30.6645 54.0207 32.9227 51.6633 29.6998C49.9691 27.3202 51.101 23.7686 53.1052 22.6039ZM80.8826 34.0374C80.8826 35.288 80.7312 36.5242 81.517 37.003C81.964 37.2674 83.0238 37.1388 83.6798 37.1388C85.1866 37.1388 90.3701 37.4532 90.9324 36.7315C91.6533 35.8382 91.2496 31.1433 91.2496 29.4997V9.89114C92.6126 9.10819 94.0995 8.55972 95.6473 8.26901C98.084 7.70447 101.314 7.69733 102.532 9.30517C103.606 10.7344 103.441 13.2783 103.441 15.7723V29.3497C103.441 31.1933 103.022 36.3456 104.075 36.9887C104.724 37.3746 107.68 37.1245 108.696 37.1245C109.713 37.1245 112.69 37.3675 113.325 36.8958C114.175 36.2598 113.822 31.6935 113.822 30.0643C113.822 23.3327 113.836 16.5941 113.865 9.84827C114.211 9.28374 115.632 9.05507 116.316 8.81925C119.301 7.77593 123.973 7.08992 125.422 9.98404C126.143 11.4847 125.919 14.2145 125.919 16.4154V29.8785C125.919 31.4792 125.559 35.8311 126.236 36.71C126.633 37.2174 127.556 37.1173 128.457 37.1173C129.812 37.1173 135.183 37.3532 135.803 36.8887C136.697 36.217 136.344 33.5015 136.344 31.9937V18.0233C136.344 12.135 136.805 6.76835 134.181 3.41688C129.481 -2.6572 117.088 0.594219 112.553 4.45305H112.373C110.635 1.55893 107.644 -0.0703575 102.914 0.00110238L101.011 0.136876C99.7191 0.306871 98.4451 0.59147 97.2045 0.987248C95.6189 1.56937 94.0872 2.28666 92.6266 3.13104L90.4061 4.48164C89.5987 3.51693 90.0889 1.95196 88.9643 1.29453C88.5245 1.03012 82.7138 0.958664 81.8991 1.15875C81.5947 1.23543 81.3238 1.40856 81.1277 1.65182C80.6519 2.36642 80.897 7.07563 80.897 8.43336L80.8826 34.0374ZM150.323 35.5595C154.771 38.325 162.802 38.9253 169.132 37.3603C170.725 36.9673 173.832 36.4099 174.387 35.1165C174.558 33.3231 174.587 31.5191 174.474 29.7213C174.364 29.4368 174.158 29.1992 173.89 29.0495C173.32 28.8066 172.448 29.221 171.893 29.364L167.221 30.2143C165.52 30.5356 163.78 30.5983 162.059 30.4001C160.848 30.31 159.644 30.1429 158.455 29.8999C154.908 28.8351 152.55 26.2126 152.514 21.7249C153.358 21.3462 156.119 21.6391 157.272 21.6391L168.807 21.6391C170.466 21.6391 173.133 21.975 174.149 21.2318C175.512 20.2242 175.411 13.4784 174.971 11.306C173.479 3.94569 169.002 -0.127525 160.012 0.0296863L158.923 0.0725622L155.658 0.522759C152.154 1.39457 149.133 2.99527 147.187 5.41776C146.1 6.71825 145.2 8.16104 144.512 9.70535C142.739 13.8786 142.248 21.4391 143.748 26.4412C144.959 30.4359 147.086 33.5372 150.323 35.5381V35.5595ZM152.99 12.2922C153.805 9.96975 155.153 8.27615 157.525 7.53297L159.551 7.14709C164.929 7.09706 166.414 9.85542 166.349 15.1935C165.628 15.5222 163.285 15.2792 162.269 15.2792H152.493C152.197 14.5289 152.759 12.9353 152.99 12.2708V12.2922ZM208.97 21.7249C206.808 18.009 202.107 16.5583 197.911 14.8505C195.922 14.043 192.663 13.3641 192.194 11.0774C191.207 6.18952 201.343 7.60443 204.342 8.34047C205.178 8.54055 207.118 9.29088 207.651 8.60487C208.185 7.91885 207.925 6.25384 207.925 5.19623C207.925 4.31728 208.04 3.19536 207.694 2.63082C207.175 1.76616 205.813 1.5232 204.753 1.20163C202.026 0.351102 199.177 -0.0543593 196.318 0.00110238L193.73 0.179752C192.117 0.413766 190.537 0.833451 189.022 1.4303C186.442 2.47085 184.373 4.46795 183.255 6.99702C181.647 10.9416 183.154 16.1725 185.569 18.0947C188.453 20.4029 192.367 21.7178 196.08 23.2184C197.955 23.9759 200.081 24.4118 200.478 26.6342C201.552 32.6725 190.017 30.4859 186.564 29.5998C185.843 29.4068 183.565 28.6422 182.959 28.9709C182.137 29.4354 182.462 31.7221 182.462 32.9655C182.462 33.6801 182.354 34.6949 182.642 35.1665C183.507 36.5957 188.287 37.4961 190.392 37.9105C198.755 39.5541 206.195 36.7529 208.884 31.5292C210.232 29.0067 210.477 24.2975 208.97 21.7035V21.7249ZM179.6 57.169L178.014 57.2619C176.476 57.297 174.945 57.462 173.436 57.755C170.022 58.343 166.73 59.4825 163.689 61.1279C162.968 61.5638 160.084 62.9715 160.61 64.2721C161.021 65.3154 165.195 64.4507 166.544 64.3578C169.211 64.1792 170.516 63.9505 173.032 63.9577H177.653C179.035 63.9363 180.416 64.0247 181.784 64.2221C182.692 64.4211 183.542 64.8218 184.271 65.394C185.324 66.2873 185.129 69.3172 184.769 70.7392C183.703 75.3236 182.31 79.8273 180.602 84.2165C180.306 84.9311 177.978 89.4331 180.559 88.89C181.726 88.6399 184.091 86.0316 184.819 85.1598C188.424 80.5935 190.695 75.3341 192.389 68.724C192.778 67.1877 193.672 61.1493 192.793 59.7415C191.351 57.4119 183.716 57.0904 179.6 57.169ZM173.969 70.0318L169.846 71.8254L163.004 74.3837C156.919 76.7204 150.142 78.2496 143.373 79.9146L135.443 81.3939L126.107 82.6087L123.115 82.8302C121.918 83.0803 120.512 82.9374 119.171 83.1446C116.209 83.4853 113.226 83.6071 110.246 83.5091L103.491 83.552L98.6392 83.3733L95.5175 83.1947C94.7966 83.0517 93.9459 83.1518 93.1601 83.0089L83.687 81.9798C80.8826 81.4582 77.8691 81.2652 75.2089 80.5506L72.9884 80.1862L64.7482 78.3568C58.8654 76.5346 53.0186 75.1125 47.5252 73.0116C41.4261 70.6749 35.0603 68.1238 29.6677 64.9653L24.3256 61.9139C23.3523 61.3351 22.5665 60.4847 21.0165 60.4847C19.863 61.0493 19.5098 61.7924 20.2956 63.1359C20.8769 63.9157 21.5803 64.5985 22.3791 65.1582L24.8302 67.402C28.3628 70.189 31.9098 73.0545 35.7523 75.5342C39.0686 77.678 42.6012 79.5002 46.0833 81.5082L51.2956 83.9807C54.2731 85.2813 57.3659 86.6247 60.4947 87.8395L68.5187 90.4907C72.8442 91.9199 77.5519 92.6345 82.2163 93.7707L92.0498 95.1999L95.2219 95.4286L100.571 95.8288H102.518C104.411 96.0923 106.33 96.1091 108.228 95.8788L110.268 95.8288L112.762 95.7859L121.284 95.1142C125.105 94.2709 129.127 94.3996 132.746 93.3134L141.088 91.2982C146.059 89.8725 150.947 88.1764 155.73 86.2174C161.677 83.7535 167.38 80.7464 172.765 77.2349C174.611 76.0058 177.221 75.0911 177.711 72.5186C178.115 70.339 175.865 69.5101 173.969 70.0318Z" fill="#151516"></path></g><defs><clipPath id="clip0_2202_3439"><rect width="210" height="96.0849" fill="white"></rect></clipPath></defs></svg>