<svg xmlns="http://www.w3.org/2000/svg" width="245" height="111" viewBox="0 0 245 111" fill="none"><path d="M5.0753 106.149C3.86344 106.632 3.17633 106.029 3.57981 104.781L7.00912 93.7125C7.43725 92.2093 7.58715 90.6409 7.4515 89.0839L0.0674088 19.2933C0.0339139 18.9855 0.0633023 18.6741 0.153804 18.378C0.244306 18.0819 0.394048 17.8071 0.594012 17.5701C0.793976 17.3332 1.04002 17.1391 1.31734 16.9995C1.59465 16.8598 1.89749 16.7776 2.20762 16.7576L241.868 0.738795C242.164 0.713489 242.463 0.753717 242.742 0.856606C243.021 0.959494 243.274 1.1225 243.482 1.33398C243.691 1.54546 243.85 1.8002 243.948 2.07998C244.046 2.35976 244.081 2.65768 244.05 2.95246L234.36 108.604C234.291 109.238 233.98 109.822 233.492 110.234C233.003 110.646 232.374 110.855 231.735 110.818L28.101 97.7776C26.5302 97.7298 24.9655 97.9896 23.4954 98.5423L5.0753 106.149ZM114.904 47.7891C112.197 47.7891 110.056 48.6343 108.481 50.2443L108.476 38.8942H103.385L103.396 62.5603C103.397 66.0216 104.449 68.8793 106.51 71.0124C108.572 73.1456 111.4 74.2323 114.956 74.2323C118.511 74.2323 121.379 73.1456 123.439 71.0124C125.498 68.8793 126.548 66.0216 126.546 62.5603L126.545 59.7026C126.501 51.814 122.621 47.7891 114.904 47.7891ZM114.906 52.7397C117.047 52.7397 118.664 53.2629 119.755 54.3496C120.846 55.4363 121.413 57.2475 121.414 59.7429L121.415 62.6005C121.416 64.6934 120.851 66.3034 119.68 67.5511C118.509 68.7988 116.974 69.3622 114.913 69.3622C112.853 69.3622 111.277 68.7585 110.185 67.5511C109.094 66.3436 108.487 64.6934 108.486 62.6005L108.485 59.7026C108.484 57.2072 109.049 55.3961 110.099 54.3094C111.149 53.2227 112.805 52.7397 114.906 52.7397ZM151.874 53.4641H135.754L135.747 38.8137H130.495L130.511 73.9506H135.763L135.756 58.5757H151.877L151.884 73.9506H157.176L157.161 38.8137H151.868L151.874 53.4641ZM197.082 47.7891C194.375 47.7891 192.234 48.6343 190.659 50.2443L190.654 38.8942H185.564L185.574 62.5603C185.576 66.0216 186.627 68.8793 188.689 71.0124C190.75 73.1456 193.579 74.2323 197.134 74.2323C200.69 74.2323 203.558 73.1456 205.617 71.0124C207.677 68.8793 208.726 66.0216 208.725 62.5603L208.723 59.7026C208.68 51.814 204.759 47.7891 197.082 47.7891ZM197.084 52.7397C199.226 52.7397 200.842 53.2629 201.933 54.3496C203.025 55.4363 203.591 57.2475 203.592 59.7429L203.594 62.6005C203.595 64.6532 203.03 66.3436 201.858 67.5511C200.687 68.7585 199.112 69.3622 197.092 69.3622C195.072 69.3622 193.455 68.7585 192.364 67.5511C191.273 66.3436 190.666 64.6934 190.665 62.6005L190.664 59.7026C190.662 57.2072 191.227 55.3961 192.277 54.3094C193.327 53.2227 194.984 52.7397 197.084 52.7397ZM94.3453 62.3188C94.3465 64.9349 93.9433 66.8266 93.1761 67.8328C92.4089 68.839 91.1566 69.322 89.2577 69.322H89.0961C87.2376 69.322 85.9041 68.7988 85.1764 67.8328C84.4083 66.7864 84.0034 64.9349 84.0023 62.3188L83.9962 48.4733H78.9863L78.9924 62.3188C78.9942 66.5449 79.7633 69.644 81.3398 71.4552C82.8354 73.2261 85.26 74.1518 88.573 74.2323H89.7447C93.0577 74.1518 95.4814 73.2261 96.9755 71.4552C98.51 69.6037 99.3167 66.5449 99.3148 62.3188L99.3087 48.4733H94.3392L94.3453 62.3188ZM176.524 62.3188C176.525 64.9349 176.122 66.7864 175.355 67.8328C174.628 68.7988 173.335 69.322 171.477 69.322H171.234C169.376 69.322 168.042 68.7988 167.315 67.8328C166.546 66.7864 166.142 64.9349 166.14 62.3188L166.134 48.4733H161.124L161.131 62.3188C161.132 66.5449 161.901 69.644 163.478 71.4552C164.974 73.2261 167.398 74.1518 170.711 74.2323H171.923C175.236 74.1518 177.66 73.2261 179.154 71.4552C180.648 69.6842 181.495 66.5449 181.493 62.3188L181.487 48.4733H176.477L176.483 62.3188H176.524ZM53.8588 54.9131L41.6151 50.848C40.8915 50.6228 40.2283 50.2376 39.6752 49.721C39.4741 49.5508 39.3095 49.3418 39.1914 49.1067C39.0732 48.8715 39.004 48.615 38.9878 48.3526L38.9874 47.5476C38.9862 44.69 41.3693 43.2411 46.2579 43.1606H46.7024C51.5911 43.1606 54.0966 44.4485 54.3806 47.0647L54.4211 47.4671H59.6734L59.6733 47.0244C59.4282 41.0677 55.0634 38.0088 46.7001 38.0088H46.1749C37.9732 38.0893 33.8536 41.3091 33.8563 47.5476L33.8567 48.3526C33.8426 50.0108 34.4155 51.6211 35.4748 52.9007C36.5258 54.1484 38.1019 55.1143 40.0819 55.7583L52.2045 59.8234C54.2653 60.5076 55.2758 61.6346 55.2766 63.325L55.2769 64.0495C55.2776 65.5387 54.5508 66.6656 53.0563 67.5511C51.5618 68.4365 49.3399 68.9195 46.5925 68.9195C43.8452 68.9195 41.7037 68.4768 40.2084 67.5511C38.7131 66.6254 38.0661 65.5387 38.0655 64.0495L38.0652 63.5262H32.8533L32.8536 64.0495C32.8193 65.4768 33.1368 66.8909 33.7784 68.168C34.4199 69.445 35.3659 70.5461 36.5334 71.3747C38.9584 73.1456 42.3122 74.0713 46.5948 74.0713C50.8775 74.0713 54.3517 73.1858 56.7346 71.3747C57.908 70.5523 58.8578 69.4525 59.499 68.174C60.1401 66.8955 60.4525 65.4782 60.408 64.0495L60.4077 63.325C60.4508 61.4146 59.821 59.5491 58.6277 58.0525C57.3699 56.5756 55.7156 55.4865 53.8588 54.9131ZM71.2374 67.5913C70.1056 66.3839 69.5393 64.7337 69.5384 62.6408L69.5344 53.6251H74.9887L74.9864 48.4733H69.5321L69.5279 38.8942H64.4371L64.4476 62.6408C64.4492 66.1021 65.5009 68.9598 67.5624 71.0929C69.4151 72.9525 71.8885 74.0697 74.513 74.2323L74.9978 74.2726L74.9956 69.3622L74.632 69.322C73.3384 69.1388 72.1434 68.5295 71.2374 67.5913ZM207.425 47.0647H208.071L208.072 48.9161H208.395L208.395 47.0647H209.041L209.041 46.8232H207.425L207.425 47.0647ZM210.375 48.3124L209.809 46.8232H209.324L209.325 48.9161H209.608L209.607 47.1854L210.294 48.9161H210.496L211.142 47.1854L211.143 48.9161H211.466L211.465 46.8232H210.94L210.375 48.3124Z" fill="#151516"></path></svg>